<svg aria-labelledby="baccarat-logo-svg" role="img" xmlns="http://www.w3.org/2000/svg" class="svg-inline icon-logo" width="104" height="40" viewBox="0 0 104 40" aria-hidden="true" fill="none"><path d="m103.98 15.02c-0.018-0.0336-0.046-0.0613-0.08-0.0798-0.033-0.0185-0.071-0.0269-0.11-0.0244h-3.511l2.019-2.5424 0.748-0.9407c0.025-0.0284 0.041-0.0631 0.048-0.1003s4e-3 -0.0755-0.01-0.1109c-0.016-0.0347-0.041-0.0642-0.073-0.085-0.033-0.0209-0.07-0.0323-0.108-0.0329l-1.495-0.0466c-0.061-2e-4 -0.122 0.0129-0.178 0.0385s-0.106 0.063-0.146 0.1096l-0.058 0.0713c-0.67 0.8419-1.7089 2.1447-2.8876 3.6367h-2.6405c-0.1125 0.0088-0.2175 0.0598-0.294 0.1426-0.0021-0.0012-0.0045-0.0019-0.0069-0.0019s-0.0048 7e-4 -0.0069 0.0019c-0.0219 0.0219-0.0879 0.0987-0.3352 0.3894l-0.0494 0.1454 0.0247 0.085c0.019 0.033 0.0468 0.0602 0.0802 0.0786 0.0334 0.0183 0.0713 0.0272 0.1094 0.0256h2.4317c-1.4865 1.8869-3.1131 3.9823-4.4842 5.8171l-0.0934 0.1234-0.0357 0.0494c-0.1676 0.2221-0.3407 0.4525-0.5001 0.7048-0.2748 0.2057-0.643 0.48-1.1265 0.8502-1.0744 0.8749-2.7312 1.9802-3.6654 1.9802-0.0666-0.0313-0.1242-0.0789-0.1674-0.1383-0.0432-0.0595-0.0707-0.1289-0.0799-0.2018-0.0165-1.0367 1.3738-2.6082 2.8493-4.273l1.8574-2.1694h-2.003l-0.0385 0.0439-0.8243 0.8996-0.1181 0.1234c-0.1429-0.6472-0.9672-1.1656-1.7723-1.1546-2.3107 0.0219-5.7343 2.3668-6.8334 4.7337-1.2062 0.9599-3.3713 2.3641-3.9044 2.3724-0.126 0.0132-0.2527-0.0189-0.3572-0.0905-0.0253-0.0324-0.0439-0.0694-0.0547-0.1089-0.0109-0.0395-0.0137-0.0809-0.0085-0.1215 0-0.4964 1.176-1.876 2.0882-2.984 0.5715-0.6939 1.3381-1.3521 1.6486-1.8348 0.1807-0.2337 0.2895-0.5148 0.3133-0.809-0.0016-0.0952-0.0242-0.1888-0.066-0.2743-0.0747-0.1247-0.1812-0.2275-0.3086-0.2978-0.1274-0.0704-0.2712-0.1058-0.4168-0.1026-0.3874-0.0302-1.36-0.107-1.9233-0.2194 0.4533-0.5897 0.8572-1.1519 1.165-1.6456 0.3077-0.4937 0.4863-0.7899 0.4836-1.1848-0.0026-0.0689-9e-3 -0.1375-0.0193-0.2057-0.0128-0.0938-0.0447-0.184-0.0937-0.265-0.049-0.0811-0.1141-0.1513-0.1914-0.2062-0.0772-0.055-0.1649-0.0936-0.2576-0.1135s-0.1885-0.0207-0.2816-0.0022c-0.5935 0-2.863 1.097-2.8493 2.877 0 0.4607 0.1621 0.8228 0.7419 1.1272-1.1722 1.4485-2.4467 2.8114-3.8137 4.0782-0.1237 0.1097-0.2309 0.2112-0.3298 0.31-0.9974 0.8474-2.3217 1.8375-3.0224 1.8375-0.0837-0.0114-0.1608-0.0516-0.218-0.1137s-0.0909-0.1421-0.0952-0.2264c0-1.0367 1.3738-2.6082 2.8493-4.273l1.8574-2.1694h-2.003l-0.0412 0.0439-0.8243 0.8996-0.1182 0.1234c-0.1401-0.6472-0.9672-1.1656-1.7722-1.1546-2.2339 0.0274-5.4953 2.1941-6.707 4.4924l-0.2171 0.1014-1.6019 0.7762c-1.7887 0.8749-3.0801 1.5084-4.105 1.5167-0.0845-0.0059-0.167-0.0285-0.2427-0.0666s-0.143-0.0909-0.198-0.1552c-0.055-0.0644-0.0966-0.139-0.1224-0.2196-0.0257-0.0806-0.0351-0.1655-0.0276-0.2498 0-1.1903 4.1022-5.3426 5.3002-5.3535 0.3902 0 0.3929 0.1179 0.3957 0.17 0 0.1426-0.2253 0.3319-0.4424 0.5183-0.3352 0.2743-0.7144 0.6007-0.7062 1.0395 0.0083 0.4388 0.2748 0.6719 0.5496 0.6692 0.2469-0.025 0.474-0.1462 0.6319-0.3373 0.4672-0.5242 0.7193-1.2048 0.7062-1.9062 0.0086-0.2291-0.071-0.4529-0.2226-0.6253-0.1157-0.0957-0.2495-0.1674-0.3934-0.2107-0.144-0.0433-0.2951-0.0575-0.4446-0.0416-1.5222 0.0192-3.9566 1.3-5.4761 2.8578-0.4219 0.4188-0.7768 0.8998-1.0523 1.4262l-0.371 0.1727-1.6046 0.7762c-1.786 0.8749-3.0774 1.5084-4.105 1.5167-0.0844-0.0063-0.1667-0.0291-0.2422-0.0673s-0.1427-0.091-0.1976-0.1553c-0.055-0.0642-0.0966-0.1387-0.1225-0.2192-0.0259-0.0804-0.0356-0.1652-0.0284-0.2494 0-1.1903 4.1022-5.3426 5.3029-5.3535 0.3902 0 0.3929 0.1179 0.3929 0.17 0 0.1426-0.2225 0.3319-0.4423 0.5184-0.3325 0.2742-0.7117 0.6006-0.7062 1.0394s0.2748 0.6719 0.5496 0.6692c0.2461-0.0251 0.4723-0.1464 0.6292-0.3373 0.4646-0.5184 0.7184-1.1914 0.7116-1.887 0.0101-0.2294-0.0697-0.4536-0.2225-0.6253-0.1138-0.0945-0.2453-0.1655-0.3868-0.2088-0.1415-0.0434-0.2902-0.0581-0.4375-0.0435-1.5222 0.0192-3.9567 1.3-5.4761 2.8578-0.8628 0.8831-1.3271 1.758-1.3738 2.5397-1.0084 0.6966-2.2449 1.4453-2.8384 1.3438-0.0734-0.0208-0.1377-0.0657-0.1825-0.1273-0.0449-0.0617-0.0677-0.1366-0.0648-0.2127-0.0137-1.0368 1.3739-2.6083 2.8494-4.273l1.8684-2.1585h-2.0141l-0.0384 0.0439-0.8243 0.8996-0.1182 0.1234c-0.1401-0.6472-0.9671-1.1656-1.7722-1.1546-2.5663 0.0329-6.5064 2.9017-7.0944 5.5126-0.4397 0-1.1238 0-2.1817 0.0576 1.6321-1.6456 2.5471-3.7382 2.5471-5.5647 0-2.0652-1.3519-4.018-3.4675-5.0931 1.6485-0.9462 3.0553-2.589 2.7036-5.1972-0.1428-1.0532-0.7116-2.1529-1.6293-3.1896 0.5358-0.34831 1.0826-0.68291 1.6486-1.0038l0.0989-0.05485-0.3187-0.47173-0.0825 0.04662c-0.6072 0.33734-1.1952 0.68291-1.7667 1.0312-2.5333-2.5287-7.1796-4.5774-12.859-4.5061-6.9351 0.082278-12.202 4.6899-14.692 8.9519l0.4726 0.27426c2.4179-4.0508 7.5423-8.5021 14.227-8.5021 4.3523 0 9.2102 1.4865 11.7 4.5143-8.1413 5.2932-12.397 11.722-16.568 17.898-4.1709 6.1764-8.1138 11.991-15.576 16.313l-0.11815 0.0658 0.3462 0.4827 0.071439-0.0384c8.0424-4.5061 13.296-11.61 18.247-18.477 4.2589-5.9131 8.2677-11.62 13.994-15.729 0.6313 0.90375 1.0416 1.9426 1.198 3.0333 0.1199 0.80382 0.0139 1.6251-0.3063 2.3723s-0.842 1.391-1.5072 1.8596c-0.948-0.3632-1.9548-0.5491-2.9702-0.5486-1.0771 0-1.7063 0.4635-1.7063 0.9846s0.7007 0.949 1.7063 0.949c0.9909-0.0396 1.9653-0.2667 2.8713-0.6692 1.3738 0.7515 2.5031 2.2325 2.5031 4.7694 0 2.6411-0.8655 4.3882-2.0332 5.551l-0.2748 0.0165c-4.5666 0.2742-6.8527 1.215-6.718 2.0844 0.0852 0.5485 0.9232 0.6445 1.3958 0.6445 2.3183 0.0203 4.5647-0.8026 6.3196-2.3148 0.7391-0.0466 1.4947-0.0768 2.2338-0.0768h0.4204v0.1975c0.0138 0.9462 0.9782 1.4152 1.8986 1.4097 0.8381 0 2.6021-0.9188 4.2232-2.153-0.0748 0.2679-0.1118 0.5448-0.1099 0.8228 2e-4 0.0046 2e-4 0.0092 0 0.0137-0.0023 0.199 0.0349 0.3964 0.1095 0.5809 0.0745 0.1845 0.1848 0.3525 0.3246 0.4942 0.2184 0.2188 0.5149 0.3421 0.8243 0.3429 0.61 0 1.9975-0.6884 3.1158-1.3713 0.338 1.2067 1.5167 1.3054 1.9042 1.3027 1.0853 0 2.8438-0.8584 4.7039-1.7635l1.1431-0.5485c-0.0168 0.1088-0.0242 0.219-0.022 0.3291 0.022 1.8567 1.5442 1.9856 1.9948 1.9829 1.099 0 2.8438-0.8584 4.7067-1.7635l0.9122-0.4388c-0.0643 0.2452-0.0957 0.4979-0.0934 0.7515 0 0.9462 0.9754 1.4151 1.8986 1.4097 0.8243 0 2.6021-0.9188 4.2204-2.153-0.0737 0.268-0.1098 0.5449-0.1071 0.8228v0.0137c-0.0023 0.1989 0.0349 0.3963 0.1094 0.5808 0.0746 0.1846 0.1849 0.3525 0.3247 0.4943 0.2193 0.2175 0.5152 0.3406 0.8243 0.3428 1.1732 0 3.2093-1.6455 4.1077-2.4436 0.033-0.0302 0.0797-0.0713 0.1292-0.1207 1.4139-1.3051 2.7307-2.7112 3.9401-4.2072 0.317 0.1286 0.6431 0.2341 0.9754 0.3154 0.2473 0.0467 0.3023 0.1015 0.3133 0.1289 0.0109 0.0275 0 0 0 0.0165-0.0112 0.0673-0.0428 0.1296-0.0907 0.1783l-0.2308 0.2742c-0.8243 0.949-2.8686 3.4228-2.8548 4.9367 0 0.4909 0.2747 1.0724 1.5469 1.0559 0.7584 0 2.4289-1.1327 3.5719-1.9637-0.0122 0.1047-0.0177 0.21-0.0164 0.3154 0 0.9462 0.9754 1.4152 1.8958 1.4097 0.8381 0 2.6021-0.9188 4.2232-2.1529-0.0748 0.2678-0.1118 0.5447-0.1099 0.8227v0.0138c-0.0019 0.1991 0.0357 0.3966 0.1107 0.5811s0.1858 0.3524 0.3262 0.494c0.2192 0.2175 0.5151 0.3406 0.8242 0.3428 1.209 0 3.4291-1.503 4.3963-2.2764-0.0649 0.3001-0.0972 0.6063-0.0962 0.9133-0.0014 0.3433 0.1263 0.6746 0.3577 0.9285 0.2315 0.2539 0.55 0.4119 0.8925 0.4428 1.1265 0 1.992-0.5485 3.0856-1.2671l0.4314-0.2742c1.2474-0.7926 2.7009-1.7224 2.7779-1.7827 0.0298-0.0255 0.0538-0.057 0.0704-0.0925s0.0254-0.0741 0.0257-0.1132v-0.0165l-0.0329-0.0603-0.0248-0.0247-0.1456-0.2139c-0.053-0.0447-0.1202-0.0692-0.1896-0.0692s-0.1365 0.0245-0.1896 0.0692c-0.0302 0.0247-1.426 1.0312-4.1022 2.5835-0.6869 0.3977-0.9754 0.4717-1.2996 0.4745-0.0579 0.0073-0.1166 0.0024-0.1725-0.0142s-0.1077-0.0446-0.1521-0.0822c-0.0444-0.0377-0.0806-0.0842-0.106-0.1365-0.0255-0.0523-0.0398-0.1094-0.042-0.1675 0-0.3182-0.0165-0.6089 0.5193-1.3165 0.3187-0.4223 3.5197-4.4485 6.2289-7.8548h3.7226l0.308-0.1371 0.327-0.4169c0.022-0.0245 0.038-0.0542 0.046-0.0863 7e-3 -0.0321 7e-3 -0.0656-2e-3 -0.0975h-8e-3zm-74.519-1.2232c-0.8765 0-1.3134-0.0823-1.3134-0.3209 0-0.3236 0.4369-0.3647 1.3134-0.3647 0.6183 0.0024 1.2313 0.1138 1.8107 0.3291-0.5735 0.2388-1.1893 0.36-1.8107 0.3565zm-2.5416 12.416c-0.6374 0-0.5495-0.2249-0.5495-0.2249 0-0.469 2.4564-1.0751 5.4211-1.3713-1.4072 1.0458-3.1172 1.6061-4.8716 1.5962zm10.875-0.8639c-0.0786 0.0068-0.1575-0.0093-0.2273-0.0463-0.0697-0.037-0.1272-0.0933-0.1656-0.1621-0.0482-0.1143-0.0652-0.2392-0.0494-0.3621-0.022-1.6455 4.1215-5.37 5.9871-5.3947 0.2312-0.0218 0.462 0.0448 0.6457 0.1865 0.0455 0.0472 0.0809 0.1032 0.1041 0.1645 0.0231 0.0613 0.0335 0.1266 0.0305 0.1921 0.0275 1.917-4.9595 5.4056-6.3251 5.4221zm25.641 0c-0.2088 0-0.2747-0.0466-0.3462-0.1563-0.0714-0.1259-0.1048-0.2698-0.0961-0.4142-0.0193-1.6455 4.1214-5.37 5.9871-5.3947 0.2311-0.0218 0.462 0.0448 0.6457 0.1865 0.0455 0.0472 0.0809 0.1032 0.1041 0.1645 0.0231 0.0613 0.0335 0.1266 0.0305 0.1921 0.0165 1.917-4.9595 5.4001-6.3251 5.4221zm13.189-6.8977c-0.3545-0.1618-0.4094-0.2907-0.4094-0.4525 0-0.7762 0.7995-1.5441 1.404-1.5496 0.0186-0.0013 0.0371 0.0033 0.0529 0.0131 0.0158 0.0099 0.0281 0.0245 0.035 0.0418 0.0227 0.0489 0.034 0.1024 0.033 0.1563-0.0094 0.2184-0.083 0.4292-0.2116 0.6061-0.0961 0.1454-0.4258 0.5897-0.8984 1.1848h-0.0055zm5.4678 6.8977c-0.1539 0-0.3077-0.1563-0.3654-0.2112-0.0562-0.1111-0.0818-0.2351-0.0742-0.3593-0.0193-1.6455 4.1214-5.37 5.9871-5.3947 0.2311-0.0218 0.462 0.0448 0.6457 0.1865 0.045 0.0476 0.0801 0.1036 0.1032 0.1648s0.0338 0.1264 0.0314 0.1918c0.0193 1.917-4.9567 5.4056-6.3223 5.4221h-0.0055z" fill="#C10A25"></path><title id="baccarat-logo-svg">Baccarat Official Online Shop</title></svg>